<mxfile host="app.diagrams.net" modified="2021-06-03T10:28:39.276Z" agent="5.0 (Macintosh; Intel Mac OS X 10_15_7) AppleWebKit/537.36 (KHTML, like Gecko) Chrome/90.0.4430.212 Safari/537.36" etag="BBhLlfna0reumUMM_y88" version="14.7.3" type="github" pages="2">
  <diagram id="TnzOCbUmsDuyawYErTtF" name="Float">
    <mxGraphModel dx="678" dy="654" grid="1" gridSize="10" guides="1" tooltips="1" connect="1" arrows="1" fold="1" page="1" pageScale="1" pageWidth="1600" pageHeight="1200" math="0" shadow="0">
      <root>
        <mxCell id="0" />
        <mxCell id="1" parent="0" />
        <mxCell id="MT9GV7SpeYxAaPc0R_LI-1" value="Float" style="text;html=1;align=center;verticalAlign=middle;resizable=0;points=[];autosize=1;strokeColor=none;fontSize=50;fontStyle=1" parent="1" vertex="1">
          <mxGeometry x="735" y="445" width="130" height="70" as="geometry" />
        </mxCell>
        <mxCell id="5B8dg7GteTT1fX1XYOR_-1" value="" style="outlineConnect=0;fontColor=#232F3E;gradientColor=none;fillColor=#D05C17;strokeColor=none;dashed=0;verticalLabelPosition=bottom;verticalAlign=top;align=center;html=1;fontSize=12;fontStyle=0;aspect=fixed;pointerEvents=1;shape=mxgraph.aws4.container_registry_image;" vertex="1" parent="1">
          <mxGeometry x="470" y="535" width="78" height="78" as="geometry" />
        </mxCell>
        <mxCell id="5B8dg7GteTT1fX1XYOR_-4" value="&lt;strong style=&quot;margin: 0px ; padding: 0px ; color: rgb(0 , 0 , 0) ; font-family: &amp;#34;open sans&amp;#34; , &amp;#34;arial&amp;#34; , sans-serif ; font-size: 14px ; font-style: normal ; letter-spacing: normal ; text-align: justify ; text-indent: 0px ; text-transform: none ; word-spacing: 0px ; background-color: rgb(255 , 255 , 255)&quot;&gt;Lorem Ipsum&lt;/strong&gt;&lt;span style=&quot;color: rgb(0 , 0 , 0) ; font-family: &amp;#34;open sans&amp;#34; , &amp;#34;arial&amp;#34; , sans-serif ; font-size: 14px ; font-style: normal ; font-weight: 400 ; letter-spacing: normal ; text-align: justify ; text-indent: 0px ; text-transform: none ; word-spacing: 0px ; background-color: rgb(255 , 255 , 255) ; display: inline ; float: none&quot;&gt;&lt;span&gt;&amp;nbsp;&lt;/span&gt;is simply dummy text of the printing and typesetting industry. Lorem Ipsum has been the industry&#39;s standard dummy text ever since the 1500s, when an unknown printer took a galley of type and scrambled it to make a type specimen book.&lt;/span&gt;" style="text;whiteSpace=wrap;html=1;fontSize=12;fontColor=#000000;" vertex="1" parent="1">
          <mxGeometry x="470" y="615" width="280" height="110" as="geometry" />
        </mxCell>
        <mxCell id="5B8dg7GteTT1fX1XYOR_-5" value="" style="outlineConnect=0;fontColor=#232F3E;gradientColor=none;fillColor=#D05C17;strokeColor=none;dashed=0;verticalLabelPosition=bottom;verticalAlign=top;align=center;html=1;fontSize=12;fontStyle=0;aspect=fixed;pointerEvents=1;shape=mxgraph.aws4.container_registry_image;" vertex="1" parent="1">
          <mxGeometry x="850" y="545" width="78" height="78" as="geometry" />
        </mxCell>
        <mxCell id="5B8dg7GteTT1fX1XYOR_-6" value="&lt;span style=&quot;color: rgb(0 , 0 , 0) ; font-family: &amp;#34;open sans&amp;#34; , &amp;#34;arial&amp;#34; , sans-serif ; font-size: 14px ; font-style: normal ; font-weight: 400 ; letter-spacing: normal ; text-align: justify ; text-indent: 0px ; text-transform: none ; word-spacing: 0px ; background-color: rgb(255 , 255 , 255) ; display: inline ; float: none&quot;&gt;since the 1500s, when an unknown printer took a galley of type and scrambled it to make a type specimen book.&amp;nbsp;&lt;/span&gt;" style="text;whiteSpace=wrap;html=1;fontSize=12;fontColor=#000000;" vertex="1" parent="1">
          <mxGeometry x="850" y="625" width="280" height="60" as="geometry" />
        </mxCell>
        <mxCell id="5B8dg7GteTT1fX1XYOR_-7" value="&lt;strong style=&quot;margin: 0px ; padding: 0px ; color: rgb(0 , 0 , 0) ; font-family: &amp;#34;open sans&amp;#34; , &amp;#34;arial&amp;#34; , sans-serif ; font-size: 14px ; font-style: normal ; letter-spacing: normal ; text-align: justify ; text-indent: 0px ; text-transform: none ; word-spacing: 0px ; background-color: rgb(255 , 255 , 255)&quot;&gt;Lorem Ipsum&lt;/strong&gt;&lt;span style=&quot;color: rgb(0 , 0 , 0) ; font-family: &amp;#34;open sans&amp;#34; , &amp;#34;arial&amp;#34; , sans-serif ; font-size: 14px ; font-style: normal ; font-weight: 400 ; letter-spacing: normal ; text-align: justify ; text-indent: 0px ; text-transform: none ; word-spacing: 0px ; background-color: rgb(255 , 255 , 255) ; display: inline ; float: none&quot;&gt;&lt;span&gt;&amp;nbsp;&lt;/span&gt;is simply dummy text of the printing and typesetting industry. Lorem Ipsum has been the industry&#39;s standard dummy text ever&lt;/span&gt;" style="text;whiteSpace=wrap;html=1;fontSize=12;fontColor=#000000;" vertex="1" parent="1">
          <mxGeometry x="930" y="545" width="200" height="90" as="geometry" />
        </mxCell>
        <mxCell id="5B8dg7GteTT1fX1XYOR_-9" value="" style="html=1;shadow=0;dashed=0;align=center;verticalAlign=middle;shape=mxgraph.arrows2.arrow;dy=0.7;dx=20.81;notch=0;fontSize=30;fillColor=#dae8fc;strokeColor=#6c8ebf;" vertex="1" parent="1">
          <mxGeometry x="760" y="605" width="71.43" height="40" as="geometry" />
        </mxCell>
        <mxCell id="5B8dg7GteTT1fX1XYOR_-11" value="float: left" style="rounded=1;whiteSpace=wrap;html=1;fontSize=15;fontStyle=0;fillColor=#d5e8d4;strokeColor=#82b366;" vertex="1" parent="1">
          <mxGeometry x="928" y="740" width="120" height="60" as="geometry" />
        </mxCell>
        <mxCell id="5B8dg7GteTT1fX1XYOR_-12" value="float: none" style="rounded=1;whiteSpace=wrap;html=1;fontSize=15;fontStyle=0;fillColor=#ffe6cc;strokeColor=#d79b00;" vertex="1" parent="1">
          <mxGeometry x="550" y="740" width="120" height="60" as="geometry" />
        </mxCell>
      </root>
    </mxGraphModel>
  </diagram>
  <diagram id="n6licvzOVAhQS8h6VBkK" name="Position">
    <mxGraphModel dx="1130" dy="1090" grid="1" gridSize="10" guides="1" tooltips="1" connect="1" arrows="1" fold="1" page="1" pageScale="1" pageWidth="1169" pageHeight="827" math="0" shadow="0">
      <root>
        <mxCell id="JRKDo3HmD5zkCIouWk_2-0" />
        <mxCell id="JRKDo3HmD5zkCIouWk_2-1" parent="JRKDo3HmD5zkCIouWk_2-0" />
        <mxCell id="pp4pOI0ePGSJGc_8cPjB-18" value="" style="rounded=0;whiteSpace=wrap;html=1;fontSize=14;fontColor=#000000;strokeColor=#000000;fillColor=none;align=center;" vertex="1" parent="JRKDo3HmD5zkCIouWk_2-1">
          <mxGeometry x="605" y="470" width="320" height="190" as="geometry" />
        </mxCell>
        <mxCell id="pp4pOI0ePGSJGc_8cPjB-17" value="" style="whiteSpace=wrap;html=1;aspect=fixed;fontSize=12;fillColor=#dae8fc;strokeColor=#6c8ebf;" vertex="1" parent="JRKDo3HmD5zkCIouWk_2-1">
          <mxGeometry x="685" y="524" width="60" height="60" as="geometry" />
        </mxCell>
        <mxCell id="pp4pOI0ePGSJGc_8cPjB-11" value="" style="rounded=0;whiteSpace=wrap;html=1;fontSize=14;fontColor=#000000;strokeColor=#000000;fillColor=none;align=center;" vertex="1" parent="JRKDo3HmD5zkCIouWk_2-1">
          <mxGeometry x="245" y="470" width="320" height="190" as="geometry" />
        </mxCell>
        <mxCell id="pp4pOI0ePGSJGc_8cPjB-5" value="" style="rounded=0;whiteSpace=wrap;html=1;fontSize=14;fontColor=#000000;strokeColor=#000000;fillColor=none;align=center;" vertex="1" parent="JRKDo3HmD5zkCIouWk_2-1">
          <mxGeometry x="425" y="184" width="320" height="190" as="geometry" />
        </mxCell>
        <mxCell id="JRKDo3HmD5zkCIouWk_2-12" value="" style="whiteSpace=wrap;html=1;aspect=fixed;fontSize=12;fillColor=#dae8fc;strokeColor=#6c8ebf;" vertex="1" parent="JRKDo3HmD5zkCIouWk_2-1">
          <mxGeometry x="435" y="238" width="60" height="60" as="geometry" />
        </mxCell>
        <mxCell id="pp4pOI0ePGSJGc_8cPjB-0" value="&lt;span style=&quot;color: rgb(51, 51, 51); font-family: sans-serif; font-size: 16px; background-color: rgb(255, 255, 255);&quot;&gt;In this demo you can control the&amp;nbsp;&lt;/span&gt;&lt;code style=&quot;color: rgb(51, 51, 51); font-size: 16px; box-sizing: border-box;&quot;&gt;position&lt;/code&gt;&lt;span style=&quot;color: rgb(51, 51, 51); font-family: sans-serif; font-size: 16px; background-color: rgb(255, 255, 255);&quot;&gt;&amp;nbsp;property for the yellow box&lt;/span&gt;" style="rounded=0;whiteSpace=wrap;html=1;fontSize=12;fontColor=#000000;align=left;fillColor=none;strokeColor=none;" vertex="1" parent="JRKDo3HmD5zkCIouWk_2-1">
          <mxGeometry x="435" y="178" width="310" height="60" as="geometry" />
        </mxCell>
        <mxCell id="pp4pOI0ePGSJGc_8cPjB-1" value="&lt;font color=&quot;#333333&quot; face=&quot;sans-serif&quot;&gt;&lt;span style=&quot;font-size: 16px&quot;&gt;To see the effect of sticky positioning, select the position: sticky option and scroll this container.&lt;/span&gt;&lt;/font&gt;" style="rounded=0;whiteSpace=wrap;html=1;fontSize=12;fontColor=#000000;align=left;fillColor=none;strokeColor=none;" vertex="1" parent="JRKDo3HmD5zkCIouWk_2-1">
          <mxGeometry x="435" y="308" width="310" height="60" as="geometry" />
        </mxCell>
        <mxCell id="pp4pOI0ePGSJGc_8cPjB-2" value="" style="whiteSpace=wrap;html=1;aspect=fixed;fontSize=12;fillColor=#fff2cc;strokeColor=#d6b656;" vertex="1" parent="JRKDo3HmD5zkCIouWk_2-1">
          <mxGeometry x="505" y="238" width="60" height="60" as="geometry" />
        </mxCell>
        <mxCell id="pp4pOI0ePGSJGc_8cPjB-3" value="" style="whiteSpace=wrap;html=1;aspect=fixed;fontSize=12;fillColor=#dae8fc;strokeColor=#6c8ebf;" vertex="1" parent="JRKDo3HmD5zkCIouWk_2-1">
          <mxGeometry x="575" y="238" width="60" height="60" as="geometry" />
        </mxCell>
        <mxCell id="pp4pOI0ePGSJGc_8cPjB-4" value="position: static" style="rounded=1;whiteSpace=wrap;html=1;fontSize=14;strokeColor=#82b366;fillColor=#d5e8d4;align=center;" vertex="1" parent="JRKDo3HmD5zkCIouWk_2-1">
          <mxGeometry x="525" y="384" width="120" height="60" as="geometry" />
        </mxCell>
        <mxCell id="pp4pOI0ePGSJGc_8cPjB-6" value="" style="whiteSpace=wrap;html=1;aspect=fixed;fontSize=12;fillColor=#dae8fc;strokeColor=#6c8ebf;" vertex="1" parent="JRKDo3HmD5zkCIouWk_2-1">
          <mxGeometry x="255" y="524" width="60" height="60" as="geometry" />
        </mxCell>
        <mxCell id="pp4pOI0ePGSJGc_8cPjB-7" value="&lt;span style=&quot;color: rgb(51, 51, 51); font-family: sans-serif; font-size: 16px; background-color: rgb(255, 255, 255);&quot;&gt;In this demo you can control the&amp;nbsp;&lt;/span&gt;&lt;code style=&quot;color: rgb(51, 51, 51); font-size: 16px; box-sizing: border-box;&quot;&gt;position&lt;/code&gt;&lt;span style=&quot;color: rgb(51, 51, 51); font-family: sans-serif; font-size: 16px; background-color: rgb(255, 255, 255);&quot;&gt;&amp;nbsp;property for the yellow box&lt;/span&gt;" style="rounded=0;whiteSpace=wrap;html=1;fontSize=12;fontColor=#000000;align=left;fillColor=none;strokeColor=none;" vertex="1" parent="JRKDo3HmD5zkCIouWk_2-1">
          <mxGeometry x="255" y="464" width="310" height="60" as="geometry" />
        </mxCell>
        <mxCell id="pp4pOI0ePGSJGc_8cPjB-8" value="&lt;font color=&quot;#333333&quot; face=&quot;sans-serif&quot;&gt;&lt;span style=&quot;font-size: 16px&quot;&gt;To see the effect of sticky positioning, select the position: sticky option and scroll this container.&lt;/span&gt;&lt;/font&gt;" style="rounded=0;whiteSpace=wrap;html=1;fontSize=12;fontColor=#000000;align=left;fillColor=none;strokeColor=none;" vertex="1" parent="JRKDo3HmD5zkCIouWk_2-1">
          <mxGeometry x="255" y="594" width="310" height="60" as="geometry" />
        </mxCell>
        <mxCell id="pp4pOI0ePGSJGc_8cPjB-10" value="" style="whiteSpace=wrap;html=1;aspect=fixed;fontSize=12;fillColor=#dae8fc;strokeColor=#6c8ebf;" vertex="1" parent="JRKDo3HmD5zkCIouWk_2-1">
          <mxGeometry x="395" y="524" width="60" height="60" as="geometry" />
        </mxCell>
        <mxCell id="pp4pOI0ePGSJGc_8cPjB-13" value="" style="whiteSpace=wrap;html=1;aspect=fixed;fontSize=12;fillColor=#dae8fc;strokeColor=#6c8ebf;" vertex="1" parent="JRKDo3HmD5zkCIouWk_2-1">
          <mxGeometry x="615" y="524" width="60" height="60" as="geometry" />
        </mxCell>
        <mxCell id="pp4pOI0ePGSJGc_8cPjB-14" value="&lt;span style=&quot;color: rgb(51, 51, 51); font-family: sans-serif; font-size: 16px; background-color: rgb(255, 255, 255);&quot;&gt;In this demo you can control the&amp;nbsp;&lt;/span&gt;&lt;code style=&quot;color: rgb(51, 51, 51); font-size: 16px; box-sizing: border-box;&quot;&gt;position&lt;/code&gt;&lt;span style=&quot;color: rgb(51, 51, 51); font-family: sans-serif; font-size: 16px; background-color: rgb(255, 255, 255);&quot;&gt;&amp;nbsp;property for the yellow box&lt;/span&gt;" style="rounded=0;whiteSpace=wrap;html=1;fontSize=12;fontColor=#000000;align=left;fillColor=none;strokeColor=none;" vertex="1" parent="JRKDo3HmD5zkCIouWk_2-1">
          <mxGeometry x="615" y="464" width="310" height="60" as="geometry" />
        </mxCell>
        <mxCell id="pp4pOI0ePGSJGc_8cPjB-15" value="&lt;font color=&quot;#333333&quot; face=&quot;sans-serif&quot;&gt;&lt;span style=&quot;font-size: 16px&quot;&gt;To see the effect of sticky positioning, select the position: sticky option and scroll this container.&lt;/span&gt;&lt;/font&gt;" style="rounded=0;whiteSpace=wrap;html=1;fontSize=12;fontColor=#000000;align=left;fillColor=none;strokeColor=none;" vertex="1" parent="JRKDo3HmD5zkCIouWk_2-1">
          <mxGeometry x="615" y="594" width="310" height="60" as="geometry" />
        </mxCell>
        <mxCell id="pp4pOI0ePGSJGc_8cPjB-16" value="" style="whiteSpace=wrap;html=1;aspect=fixed;fontSize=12;fillColor=#fff2cc;strokeColor=#d6b656;" vertex="1" parent="JRKDo3HmD5zkCIouWk_2-1">
          <mxGeometry x="665" y="494" width="60" height="60" as="geometry" />
        </mxCell>
        <mxCell id="pp4pOI0ePGSJGc_8cPjB-19" value="&lt;div&gt;position: absolute;&lt;/div&gt;&lt;div&gt;top: 40px; left: 40px;&lt;/div&gt;" style="rounded=1;whiteSpace=wrap;html=1;fontSize=14;strokeColor=#b85450;fillColor=#f8cecc;align=left;spacing=8;" vertex="1" parent="JRKDo3HmD5zkCIouWk_2-1">
          <mxGeometry x="698.75" y="674" width="141.25" height="60" as="geometry" />
        </mxCell>
        <mxCell id="pp4pOI0ePGSJGc_8cPjB-9" value="" style="whiteSpace=wrap;html=1;aspect=fixed;fontSize=12;fillColor=#fff2cc;strokeColor=#d6b656;" vertex="1" parent="JRKDo3HmD5zkCIouWk_2-1">
          <mxGeometry x="365" y="554" width="60" height="60" as="geometry" />
        </mxCell>
        <mxCell id="X3iJPYOBj7yBotCG4n5D-0" value="Position" style="text;html=1;align=center;verticalAlign=middle;resizable=0;points=[];autosize=1;strokeColor=none;fontSize=50;fontStyle=1" vertex="1" parent="JRKDo3HmD5zkCIouWk_2-1">
          <mxGeometry x="480" y="94" width="210" height="70" as="geometry" />
        </mxCell>
        <mxCell id="X3iJPYOBj7yBotCG4n5D-1" value="&lt;div&gt;position: relative;&lt;/div&gt;&lt;div&gt;top: 40px; left: 40px;&lt;/div&gt;" style="rounded=1;whiteSpace=wrap;html=1;fontSize=14;strokeColor=#9673a6;fillColor=#e1d5e7;align=left;spacing=8;" vertex="1" parent="JRKDo3HmD5zkCIouWk_2-1">
          <mxGeometry x="334.38" y="674" width="141.25" height="60" as="geometry" />
        </mxCell>
      </root>
    </mxGraphModel>
  </diagram>
</mxfile>
